<?xml version="1.0" encoding="utf-8"?>
<!-- Generator: Adobe Illustrator 27.3.1, SVG Export Plug-In . SVG Version: 6.00 Build 0)  -->
<svg version="1.1" xmlns="http://www.w3.org/2000/svg" xmlns:xlink="http://www.w3.org/1999/xlink" x="0px" y="0px"
	 viewBox="0 0 595.2756 595.2756" style="enable-background:new 0 0 595.2756 595.2756;" xml:space="preserve">
<style type="text/css">
    .st0{fill:#F0FFFD;}
    .st1{fill:#B0FFF7;}
    .st2{fill:#91FFEC;}
    .st3{fill:#7FFFCF;}
    .st4{fill:#95FFC2;}
    .st5{fill:#C0FFF8;}
    .st6{fill:#CFFFF9;}
    .st7{fill:#B1FFF6;}
    .st8{fill:#7AFFCC;}
    .st9{fill:#D8FFFB;}
    .st10{fill:#EDFFFD;}
    .st11{fill:#DEFFFB;}
    .st12{fill:#A7FFE4;}
    .st13{fill:#95FFCB;}
    .st14{fill:#70D49B;}
    .st15{fill:#B8FFE8;}
    .st16{fill:#C2FFF8;}
    .st17{fill:#A4FFE5;}
    .st18{fill:#9DFFD6;}
    .st19{fill:#B3FFF6;}
    .st20{fill:#69CDA9;}
    .st21{fill:#77FFC2;}
    .st22{fill:#70D4B6;}
</style>
<g id="Layer_3">
	<polygon class="st0" points="364.8699,159.4232 359.6733,169.942 440.1548,207.3195 481.3366,207.3195 477.9657,200.1322 	"/>
	<polygon class="st1" points="419.0912,237.4209 469.4687,257.808 469.4687,282.7369 377.0887,338.428 347.826,301.9384 	"/>
	<polygon class="st2" points="469.4687,259.396 469.4687,282.7369 493.6931,298.3529 501.6544,233.103 	"/>
	<polygon class="st3" points="469.4687,282.7369 493.6931,298.3529 422.7442,366.4299 377.0887,338.428 	"/>
	<polygon class="st4" points="413.7383,153.7834 442.3663,171.6993 451.2516,190.5165 385.3947,167.6733 	"/>
	<polygon class="st5" points="359.6733,158.0675 400.497,147.8532 413.7383,153.7834 385.3947,167.6733 	"/>
	<polygon class="st6" points="356.0382,226.1287 437.0524,205.8787 419.0912,237.4209 347.826,301.9384 	"/>
	<polygon class="st7" points="359.6733,169.942 437.0524,205.8787 356.0382,226.1287 341.7934,207.3195 	"/>
	<polygon class="st8" points="245.9623,205.8787 282.2079,167.6733 359.6733,169.942 278.3835,202.3025 	"/>
	<polygon class="st7" points="245.9623,205.8787 278.3835,202.3025 287.9981,213.8198 283.5517,237.5826 	"/>
	<polygon class="st6" points="356.0382,226.1287 283.5517,237.5826 287.9981,213.8198 341.7934,207.3195 	"/>
	<polygon class="st0" points="279.5315,143.4133 282.2079,167.6733 359.6733,169.942 364.8699,159.4232 	"/>
	<polygon class="st9" points="279.8314,146.1319 282.2079,167.6733 193.6254,261.5131 169.3222,211.5436 	"/>
	<polygon class="st10" points="283.5517,237.5826 356.0382,226.1287 347.826,301.9384 261.4673,293.6792 	"/>
	<polygon class="st11" points="245.9623,205.8787 283.5517,237.5826 261.4673,293.6792 193.6254,261.5131 	"/>
	<polygon class="st5" points="347.826,301.9384 377.9102,338.5231 356.0382,384.1077 303.8728,389.6139 	"/>
	<polygon class="st11" points="261.4673,293.6792 347.826,301.9384 303.8728,389.6139 243.8519,378.0702 	"/>
	<polygon class="st6" points="193.6254,261.5131 261.4673,293.6792 243.8519,378.0702 150.0891,316.3565 	"/>
	<polygon class="st5" points="169.3222,211.5436 118.3242,202.3025 114.6535,224.262 157.2178,252.7426 193.6254,261.5131 	"/>
	<polygon class="st12" points="157.2178,252.7426 193.6254,261.5131 150.0891,316.3565 136.5268,290.4129 	"/>
	<polygon class="st11" points="118.3242,202.3025 114.6535,224.262 108.4705,235.7894 81.3434,239.423 90.9531,211.7211 	"/>
	<polygon class="st13" points="81.3434,239.423 108.4705,235.7894 136.5268,290.4129 150.0891,316.3565 118.393,320.8093 	"/>
	<polygon class="st14" points="118.393,320.8093 150.0891,316.3565 115.7162,371.3925 	"/>
	<polygon class="st15" points="150.0891,316.3565 243.8519,378.0702 201.4158,414.802 129.9371,348.6229 	"/>
	<polygon class="st16" points="303.8728,389.6139 301.1949,436.1399 201.4158,414.802 243.8519,378.0702 	"/>
	<polygon class="st17" points="348.0247,440.7012 301.1949,436.1399 303.8728,389.6139 356.0382,384.1077 	"/>
	<polygon class="st18" points="301.1949,436.1399 348.0247,440.7012 301.1993,460.8193 	"/>
	<polygon class="st19" points="201.4158,414.802 179.1968,431.8275 301.1993,460.8193 301.1949,436.1399 	"/>
	<polygon class="st12" points="129.9371,348.6229 201.4158,414.802 179.1968,431.8275 115.7162,371.3925 	"/>
	<polygon points="114.6535,224.262 157.2178,252.7426 136.5268,290.4129 108.4705,235.7894 	"/>
	<polygon points="437.0524,205.8787 419.0912,237.4209 470.5247,262.8416 504.092,232.9372 479.1735,201.6488 	"/>
	<polygon class="st20" points="319.5735,184.7991 341.7934,207.3195 359.6733,169.942 	"/>
	<polygon points="278.3835,202.3025 287.9981,213.8198 341.7934,207.3195 319.5735,184.7991 	"/>
	<polygon class="st21" points="356.0382,384.1077 422.7647,365.4797 383.9722,427.9194 348.0247,440.7012 	"/>
	<polygon class="st22" points="377.9102,338.5231 422.7647,365.4797 356.0382,384.1077 	"/>
</g>
<g id="outline">
	<g>
		<g id="XMLID_00000116229625403163492240000010562636602103305099_">
			<g>
				<path d="M476.96,257.16c-1.11,0.95-2.21,1.9-3.31,2.86c-0.55,0.48-0.91,0.92-1.14,1.39c-0.37,0.75-0.42,1.57-0.44,2.73
					c-0.06,5.12-0.12,10.24-0.18,15.37c-0.03,2.41,0.9,3.57,2.9,4.8c5.62,3.47,11.25,6.94,16.88,10.4c0.49,0.31,1.6,0.8,1.75-0.14
					c1.15-7.07,1.64-14.34,2.44-21.47c0.82-7.38,1.65-14.76,2.47-22.14c0-1.25,1.58-11.88,1.07-11.99c-0.21-0.04-0.42,0.08-0.6,0.2
					c-5.48,3.52-10.35,8.3-15.34,12.48C481.29,253.48,479.12,255.31,476.96,257.16z M493.29,218.67c2.79,4.3,6.5,7.87,9.53,12
					c0.05,0.06,0.1,0.13,0.15,0.2c0.46,0.64,0.92,1.3,1.12,2.07c0.16,0.58,0.15,1.2,0.14,1.81c-0.07,2.66-0.4,5.28-0.72,7.92
					c-0.36,2.94-0.69,5.89-1.02,8.83c-0.65,5.89-1.24,11.78-1.84,17.67c-0.5,4.94-1,9.88-1.5,14.82l-0.74,7.3
					c-0.13,1.25-0.24,2.51-0.38,3.76c-0.18,1.52-0.25,3.16-0.93,4.57c-0.6,1.24-1.63,2.21-2.64,3.14c-4.98,4.62-9.98,9.21-15,13.78
					c-1.44,1.31-2.85,2.64-4.27,3.97c-2.77,2.61-5.53,5.24-8.31,7.84c-2.49,2.34-5.01,4.66-7.51,6.99
					c-0.46,0.43-0.87,0.89-1.32,1.33c-1.27,1.25-2.58,2.46-3.92,3.64c-5.87,5.16-11.38,10.81-17.03,16.2
					c-2.41,2.29-4.82,4.59-7.23,6.88c-1.93,1.83-4.06,3.49-5.57,5.7c-1.66,2.43-3.32,4.86-4.98,7.29
					c-3.36,4.92-6.71,9.85-10.05,14.78c-4.12,6.09-8.23,12.2-12.32,18.31c-2.04,3.06-4.08,6.12-6.12,9.18
					c-0.96,1.44-1.92,2.87-2.85,4.32c-1.06,1.63-2.01,3.71-3.68,4.76c-1.7,1.06-3.6,1.73-5.49,2.38c-2.18,0.76-4.26,1.67-6.36,2.6
					c-13.17,5.9-26.36,11.67-39.73,17.11c-2.23,0.91-4.5,1.73-6.66,2.8c-1.67,0.82-3.41,1.5-5.11,2.27
					c-3.54,1.58-7.09,3.11-10.63,4.68c-2.75,1.22-5.6,3.19-8.6,3.69c-2.67,0.43-5.87-0.86-8.47-1.43c-3.09-0.67-6.17-1.36-9.25-2.05
					c-12.74-2.87-25.36-6.5-38.16-9.06c-14.17-3.35-28.37-6.57-42.51-10.03c-0.83-0.2-1.66-0.42-2.49-0.61
					c-2.5-0.56-4.97-1.19-7.45-1.84c-5.46-1.42-11.66-2.04-16.43-5.29c-1.76-1.21-3.26-2.75-4.75-4.28
					c-9.41-9.64-18.94-19.16-28.54-28.62c-5.21-5.14-10.45-10.26-15.69-15.37c-2.62-2.56-5.25-5.11-7.87-7.67
					c-1.31-1.27-2.63-2.55-3.94-3.82c-1-0.98-2.89-2.13-2.84-3.68c0.05-1.64,0.13-3.27,0.24-4.9c0.48-7.39,0.97-14.78,1.46-22.17
					c0.48-7.3,0.72-14.67,1.45-21.95c0.04-0.66,0.09-1.33,0-1.99c-0.11-0.79-0.4-1.55-0.69-2.29c-1.72-4.25-3.91-8.28-5.88-12.41
					c-4.18-8.75-8.51-17.46-12.49-26.31c-4.31-8.62-8.21-17.47-12.53-26.1c-1.53-3.05-3.07-6.09-4.63-9.13
					c-1.07-2.13-2.66-4.36-2.45-6.87c0.22-2.59,1.56-5.43,2.37-7.91c1.82-5.61,3.8-11.17,5.91-16.68c0.29-0.73,0.59-1.5,1.16-2.05
					c0.62-0.6,1.47-0.87,2.3-1.13c7.75-2.41,15.5-4.82,23.26-7.23c4.91-1.52,9.12-1.04,14.06,0.21c2.4,0.61,4.87,0.96,7.31,1.43
					c1.76,0.34,3.51,0.68,5.27,1.01c1.91,0.36,3.8,0.81,5.71,1.09c0.16,0.03,0.31,0.07,0.46,0.1c7.52,1.63,15.08,3.09,22.62,4.64
					c1.01,0.21,2.05,0.42,3.07,0.24c1.04-0.18,1.96-0.75,2.86-1.31c10.41-6.5,20.93-12.84,31.41-19.26
					c16.66-10.22,33.35-20.38,50-30.61c4.21-2.59,8.41-5.17,12.62-7.75c2.1-1.3,4.2-2.59,6.31-3.88c1.67-1.03,3.04-2.46,5.02-2.89
					c1.82-0.39,3.73-0.06,5.55,0.16c9.26,1.09,18.54,2.9,27.73,4.5c8.16,1.42,16.42,2.46,24.63,3.66
					c8.27,1.22,16.73,2.02,24.93,3.66c3.61,0.53,7-0.81,10.49-1.7c3.81-0.97,7.62-1.94,11.42-2.91c2.18-0.55,4.33-1.19,6.49-1.8
					c3.54-1.01,9.57-3.64,12.99-1.85c4.35,2.29,8.67,4.63,12.99,6.96c8.56,4.61,17.1,9.27,25.61,13.98c2.3,1.27,3.02,2.75,4.07,5.05
					c1.11,2.43,2.37,4.78,3.56,7.17c0.21,0.41,0.37,0.85,0.56,1.28c0.32,0.7,0.64,1.41,0.96,2.12c0.97,2.11,1.76,4.14,2.48,6.37
					c0.11,0.35,0.23,0.71,0.47,0.99c0.27,0.32,0.68,0.49,1.07,0.66c3.86,1.62,7.77,3.14,11.7,4.57c2.9,1.04,5.83,2.02,8.73,3.04
					c0.68,0.24,1.37,0.48,2.01,0.81c3.63,1.9,5.97,6.59,8.46,9.71c1.94,2.43,3.68,5.01,5.76,7.32
					C492.61,217.62,492.95,218.15,493.29,218.67z M348.58,157.92c-2.53-0.41-5.07-0.77-7.6-1.18c-2.23-0.35-4.44-0.75-6.67-1.11
					c-2.3-0.36-4.61-0.71-6.92-1.05c-2.22-0.33-4.45-0.66-6.68-0.98c-2.46-0.36-4.91-0.75-7.38-1.06c-2.7-0.34-5.37-0.88-8.05-1.29
					c-7.7-1.17-15.4-2.28-23.11-3.34c-0.3-0.04-0.61-0.09-0.92-0.03c-0.33,0.06-0.62,0.23-0.91,0.4c-2.72,1.57-5.4,3.2-8.09,4.81
					c-2.47,1.47-4.96,2.9-7.44,4.35c-0.34,0.2-0.68,0.38-1,0.6c-1.71,1.22-3.5,2.31-5.34,3.3c-1.38,0.74-2.71,1.53-4.02,2.35
					c-2.24,1.4-4.51,2.77-6.74,4.18c-4.33,2.74-8.76,5.32-13.12,8.02c-4.76,2.94-9.59,5.77-14.35,8.71
					c-1.38,0.86-2.79,1.7-4.18,2.55c-2.58,1.58-5.16,3.17-7.74,4.75c-2.06,1.26-4.11,2.51-6.17,3.77c-2.59,1.57-5.15,3.18-7.76,4.71
					c-3.48,2.05-6.93,4.15-10.29,6.4c-0.32,0.21-0.66,0.4-0.99,0.61c-3.18,1.92-6.6,4.83-10.01,6.21c-3.3,1.34-7.5,0.32-10.76-0.63
					c-7.1-2.06-14.29-3.43-21.54-4.9c-4.66-0.94-9.31-1.88-13.96-2.82c-4.26-0.86-8.3-2.23-12.59-0.92
					c-7.32,2.25-14.64,4.51-21.96,6.76c-0.48,0.14-0.97,0.3-1.34,0.63c-0.39,0.36-0.6,0.88-0.79,1.38l-4.9,12.99
					c-1.28,3.38-3.85,7.63-2.16,11.19c0.67,1.43,1.35,2.86,2.02,4.29c8.34,17.63,16.68,35.28,25.08,52.87
					c0.63,1.33,1.27,2.66,1.85,4.01c0.73,1.71,1.67,3.33,2.46,5.02c1.12,2.39,2.39,4.71,3.51,7.11c1.19,2.56,3.08,5.01,2.9,7.91
					c-0.18,2.8-0.36,5.61-0.54,8.42c-0.48,7.38-0.95,14.77-1.43,22.15c-0.24,3.7-0.47,7.39-0.71,11.08
					c-0.12,1.85-0.24,3.69-0.36,5.54c-0.04,0.74-0.37,1.98-0.15,2.69c0.15,0.46,0.69,0.78,1,1.13c0.93,1.03,1.97,1.98,2.95,2.96
					c2.04,2.05,4.08,4.1,6.12,6.15c4.08,4.09,8.16,8.19,12.24,12.29c10.42,10.45,20.81,20.92,31.24,31.35
					c1.1,1.1,2.18,2.22,3.3,3.29c2.1,2.01,4.37,3.96,7.03,5.19c2.9,1.33,6.43,1.64,9.54,2.39c7.04,1.71,14.03,3.6,21.07,5.3
					c2.26,0.55,4.54,1.05,6.8,1.6c3.77,0.92,7.54,1.87,11.31,2.8c8.66,2.13,17.36,4.15,26.04,6.18c14.07,3.3,28.42,5.91,42.32,9.88
					c0.44,0.11,0.89,0.21,1.34,0.17c0.39-0.04,0.76-0.18,1.12-0.32c7.83-3.02,15.6-6.18,23.29-9.54
					c13.26-5.81,26.55-11.55,39.85-17.27c4.95-2.13,10.12-4.01,14.94-6.42c0.91-0.39,1.85-0.8,2.57-1.48
					c0.5-0.49,0.88-1.09,1.25-1.68c1.83-2.94,3.67-5.86,5.64-8.68c1.96-2.8,3.95-5.58,5.88-8.4c2.6-3.78,5.12-7.61,7.71-11.4
					c3.2-4.68,6.37-9.39,9.54-14.09c1.99-2.97,4.06-5.89,5.89-8.97c0.15-0.26,0.34-0.51,0.53-0.76c0.86-1.2,1.76-2.37,2.6-3.58
					c0.7-1.02,1.68-1.8,2.42-2.79c1.54-1.06,2.78-2.47,4.18-3.69c1.46-1.28,2.87-2.62,4.28-3.96c9.75-9.25,19.42-18.57,29.23-27.76
					c1.58-1.49,3.24-2.9,4.77-4.44c0.83-0.83,1.76-1.54,2.55-2.39c1.32-1.43,2.83-2.66,4.18-4.05c1.07-1.12,2.28-2.11,3.41-3.17
					c3.23-3.04,6.45-6.08,9.67-9.12c0.85-0.8,1.66-1.64,2.53-2.41c1.11-0.98,2.12-2.05,3.08-3.15c-0.1-0.43-0.43-0.64-0.75-0.85
					c-1.94-1.3-3.94-2.49-5.95-3.68c-3.34-1.97-6.64-4.03-9.96-6.04c-1.16-0.7-3.49-2.79-4.87-2.63c-0.58,0.07-1.1,0.38-1.6,0.67
					c-11.34,6.74-22.69,13.49-34.06,20.13c-4.83,2.83-9.67,5.63-14.5,8.45c-2.41,1.41-4.81,2.85-7.23,4.26
					c-5.67,3.31-11.31,6.66-16.96,10.01c-2.86,1.69-5.71,3.39-8.57,5.08c-1.46,0.86-2.93,1.72-4.39,2.58
					c-1.09,0.64-2.41,1.75-3.62,2.1c-0.91,0.26-1.34-0.43-1.59-1.18c-0.61-1.86,2.54-3.2,3.82-4.06
					c11.44-7.63,23.69-14.18,35.53-21.17c6.32-3.72,12.63-7.46,18.95-11.19c6.27-3.7,12.7-7.22,18.83-11.15
					c4.01-2.56,8.15-4.88,12.23-7.34c0.26-0.16,0.53-0.32,0.67-0.59c0.12-0.23,0.13-0.51,0.13-0.77c0.07-6.44,0.16-12.88,0.18-19.32
					c0-0.55,0.04-1.11-0.08-1.63c-0.07-0.3-0.15-0.58-0.26-0.84c5.8-1.59,10.87-6.08,15.52-9.65c2.74-2.11,5.27-4.25,7.63-6.8
					c2.55-2.76,5.59-4.77,8.41-7.25c1.46-1.27,1.84-2.8,1.53-4.19c-0.04-1.05-0.43-2.13-1.29-3.11c-1.77-2.02-3.58-3.64-5.15-5.85
					c-0.8-1.12-1.67-2.18-2.57-3.19c-2.92-4.25-6.31-7.91-9.84-11.82c-3.76-4.18-7.35-7.66-12.79-7.95l-0.01,0.03
					c-7.27-2.41-14.34-5.28-21.5-7.96c-3.13-1.17-6.22-2.41-9.37-3.54c-2.63-0.94-5.28-1.83-7.87-2.87
					c-3.04-1.21-6.11-2.32-9.16-3.49c-3.04-1.16-6.13-2.21-9.15-3.44c-2.52-1.03-5.08-1.94-7.64-2.84c-3.15-1.12-6.2-2.5-9.4-3.49
					c-0.22-0.06-0.42-0.18-0.64-0.26c-2.69-1.03-5.36-2.1-8.06-3.06c-1.69-0.6-3.34-1.27-4.99-1.95c-0.43-0.17-0.85-0.37-1.3-0.51
					c-2.37-0.75-4.61-1.85-7.02-2.49c-3.44-1.41-7-2.52-10.47-3.84c-1.53-0.58-3.1-0.99-4.7-1.31c-1.59-0.33-3.17-0.71-4.79-0.92
					C351.17,158.45,349.88,158.13,348.58,157.92z M448.42,188.6c0.33-0.24,0.2-0.76,0.04-1.13c-1.76-4.07-3.53-8.15-5.29-12.22
					c-1.14-2.65-3.95-3.82-6.38-5.2c-1.54-0.87-3.08-1.75-4.63-2.63c-3.17-1.8-6.34-3.59-9.52-5.38
					c-6.18-3.49-12.37-6.96-18.56-10.43c-0.34-0.19-0.69-0.38-1.07-0.42c-0.29-0.02-0.57,0.04-0.85,0.11
					c-10.37,2.4-20.73,4.81-31.06,7.36c-0.23,0.06-0.44,0.14-0.62,0.29c0.6,1.1,2.32,1.6,3.44,2.03c6.49,2.43,12.97,4.87,19.46,7.31
					c18.07,6.78,36.13,13.49,54.18,20.28C447.84,188.68,448.18,188.78,448.42,188.6z"/>
			</g>
			<g>
			</g>
		</g>
	</g>
	<polygon points="467.7926,200.345 479.855,204.1604 500.18,233.103 504.092,232.9372 481.8911,203.5869 472.1402,198.0353 	"/>
</g>
</svg>
